<?xml version="1.0" encoding="utf-8"?>
<!-- Generator: Adobe Illustrator 16.0.0, SVG Export Plug-In . SVG Version: 6.00 Build 0)  -->
<!DOCTYPE svg PUBLIC "-//W3C//DTD SVG 1.1//EN" "http://www.w3.org/Graphics/SVG/1.1/DTD/svg11.dtd">
<svg version="1.1" id="Layer_1" xmlns="http://www.w3.org/2000/svg" xmlns:xlink="http://www.w3.org/1999/xlink" x="0px" y="0px"
	 width="640px" height="480px" viewBox="0 0 640 480" enable-background="new 0 0 640 480" xml:space="preserve">
<path fill-rule="evenodd" clip-rule="evenodd" d="M245.141,233.257c-2.062,0.088-4.131-0.009-6.197,0.024 M255.362,233.096
	 M228.06,233.713c-1.05-0.021-2.568-0.269-2.689-1.469c-0.352-3.481-2.696-3.492-5.233-3.447c-0.46,0.009-1.18-0.044-1.347-0.325
	c-2.422-4.086-6.354-2.68-9.767-2.542c-3.467,0.142-6.269-0.658-8.161-3.652c-1.23-1.945-2.404-3.939-3.427-5.999
	c-2.774-5.584-2.255-7.099,3.303-10.007c1.652-0.866,3.194-1.617,3.125-3.961c-0.064-2.161-1.159-3.261-2.935-4.153
	c-4.554-2.288-7.531-6.188-9.666-10.594c-2.756-5.688-5.008-11.613-5.203-18.08c-0.021-0.725-0.1-1.463-0.002-2.174
	c0.354-2.585,0.85-5.322,3.746-6.124c2.667-0.737,4.635,0.947,6.136,3.006c6.97,9.557,12.85,19.526,11.895,32.033
	c-0.105,1.378,0.04,2.947,1.2,3.643c1.221,0.733,1.685-0.988,2.511-1.567c2.09-1.465,3.953-1.181,5.397,0.782
	c0.767,1.042,1.336,2.362,1.572,3.635c0.63,3.395,2.478,4.213,5.882,4.342c7.513,0.284,14.982-0.382,22.474-0.356
	c6.104,0.021,7.756-1.32,9.772-7.179c2.369-6.885,3.198-13.943,2.588-21.187c-0.267-3.161-1.328-5.116-5.133-5.013
	c-4.058,0.109-7.359-1.796-10.064-5.018c-2.132-2.54-5.356-4.039-8.381-4.955c-4.817-1.459-6.461-4.091-3.768-8.424
	c1.362-2.191,2.535-3.506-0.871-4.964c-2.158-0.923-1.94-3.199-0.422-4.947c1.273-1.465,2.727-2.771,4.055-4.19
	c0.643-0.686,1.705-1.394,1.261-2.423c-0.504-1.168-1.725-0.575-2.6-0.404c-7.155,1.396-14.345,2.543-21.619,3.094
	c-2.056,0.155-4.121,0.228-6.183,0.279c-0.571,0.015-1.291,0.033-1.488-0.731c-0.175-0.677,0.239-1.211,0.747-1.525
	c2.166-1.342,4.303-2.75,6.567-3.906c5.41-2.762,10.871-5.429,16.345-8.064c2.018-0.972,2.514-2.553,3.296-4.61
	c2.291-6.02,1.2-12.208,1.904-18.275c0.635-5.469,3.859-8.355,8.982-9.613c6.725-1.65,13.417-3.416,20.31-4.29
	c5.974-0.757,7.497-0.026,9.559,5.479c2.517,6.721,7.34,11.987,11.078,17.936c0.838,1.333,2.358,1.033,3.674,1.06
	c6.957,0.14,13.772-1.254,20.658-1.891c1.868-0.172,4.78-1.135,5.315,0.736c0.656,2.292-2.392,2.906-4.166,3.637
	c-5.05,2.081-10.166,4.014-15.308,5.857c-2.125,0.762-2.999,1.555-1.074,3.455c0.688,0.679,1.22,1.514,1.868,2.236
	c3.5,3.903,5.462,4.745,9.662,1.836c7.488-5.184,15.528-2.623,23.315-2.423c5.937,0.152,11.892,0.612,17.835,0.489
	c5.532-0.115,10.508,0.789,15.778,3.061c11.04,4.76,22.009,9.694,33.055,14.443c4.017,1.728,8.046,3.424,12.058,5.164
	c2.29,0.993,3.831,2.532,3.713,5.264c-0.063,1.466,0.508,2.496,1.997,3.098c3.108,1.257,4.458,3.308,2.455,6.535
	c-0.991,1.597-0.411,2.545,1.012,3.609c2.999,2.243,6.28,2.71,9.65,1.566c6.308-2.143,9.711,2.178,13.439,5.753
	c1.077,1.033,0.953,2.19-0.817,2.647c-2.005,0.517-4.003,1.169-6.093,0.669c-5.738-1.374-11.345-0.314-16.965,0.788
	c-3.163,0.621-5.264,2.892-7.67,4.71c-1.117,0.844-2.294,2.362-3.796,1.173c-1.457-1.153-0.368-2.681,0.175-3.991
	c0.277-0.669,0.659-1.304,1.062-1.909c3.419-5.125,1.517-8.279-3.41-9.944c-11.948-4.039-23.269-9.437-33.854-15.996
	c-7.765-4.811-15.155-4.693-23.25-2.738c-4.762,1.149-4.834,1.171-2.729,5.679c0.718,1.537,1.896,2.903,2.393,4.493
	c2.737,8.75,9.603,11.168,17.685,11.662c3.206,0.195,5.675,1.175,7.856,3.774c2.076,2.474,4.889,4.347,7.454,6.388
	c1.689,1.344,1.77,2.321-0.151,3.553c-1.971,1.265-4.145,1.998-6.241,2.944c-1.13,0.51-3.126,0.248-3.139,1.909
	c-0.011,1.313,1.609,2.002,2.677,2.783c4.72,3.455,9.895,6.157,15.107,8.736c6.856,3.392,13.833,6.549,20.826,9.658
	c2.086,0.928,4.364,1.492,6.608,1.982c4.745,1.036,4.851,1.011,2.83,5.566c-1.079,2.432-3.234,4.573-3.668,7.062
	c-0.663,3.805-3.087,7.549-3.492,8.562c-0.449,1.123-0.811,2.323-0.847,2.917c-0.042,0.688,0.126,0.467-0.198,1.655
	c-0.396,0.685-0.936,1.207-1.092,1.699c-0.352,1.108-0.981,0.747-1.716,3.393c-2.563,9.247-5.244,18.451-8.43,27.518
	c-1.876,5.337-3.53,6.231-8.194,3.298c-2.021-1.273-4.327-4.403-5.843-3.574c-1.893,1.034,0.131,4.361-0.141,6.736
	c-0.261,2.28,0.053,4.623-0.122,6.92c-0.628,8.229,2.416,15.013,8.225,20.584c7.566,7.257,13.906,15.589,20.9,23.345
	c5.741,6.367,10.42,13.303,12.909,21.63c1.221,4.079,4.258,7.342,5.57,11.439c1.81,5.648-0.278,8.555-6.189,8.159
	c-1.909-0.128-3.921-0.5-5.646-1.284c-7.84-3.564-16.16-3.432-24.371-2.864c-11.421,0.789-22.833,0.316-34.245,0.583
	c-4.49,0.105-8.973,0.262-13.461,0.481c-12.136,0.594-24.263-0.39-36.388-0.982c-8.001-0.392-16.007-0.938-24.012-0.95
	c-9.854-0.014-19.642-0.84-29.436-1.657c-2.334-0.194-5.739-0.148-5.917-3.052c-0.172-2.822,3.274-2.748,5.345-3.136
	c6.665-1.25,13.214-2.803,19.334-5.802c2.45-1.2,4.202-2.066,2.744-5.941c-1.37-3.641-2.095-8.371,1.503-11.947
	c1.168-1.161,0.57-2.359-0.237-3.251c-7.676-8.489-12.526-19.076-20.524-27.349c-5.73-5.926-5.685-7.642-0.892-14.479
	c5.513-7.867,11.447-15.398,18.323-22.132c1.551-1.519,2.109-2.973,1.586-5.165c-1.006-4.213,0.49-8.188,1.832-12.088
	c0.917-2.666,1.052-5.14-1.336-6.732c-2.964-3.249-5.465-3.539-8.07-6.767c-0.906-1.558-1.558-2.549-2.252-4.136
	c-0.527-1.205-0.811-2.006-2.141-1.91 M399.787,356.979c0.612-0.219,1.937,0.534,2.581-0.714c0.374-0.724-0.384-1.002-0.99-1.142
	c-4.201-0.969-5.28-4.158-5.744-7.887c-0.607-4.888-2.8-8.807-6.636-12.097c-7.739-6.639-15.301-13.494-22.753-20.457
	c-8.307-7.761-12.922-17.816-16.706-28.281c-0.925-2.56-2.3-3.536-5.058-3.526c-6.552,0.022-13.22,0.624-19.626-0.787
	c-9.83-2.163-18.296-0.3-25.586,6.684c-0.171,0.164-0.426,0.236-0.618,0.383c-3.876,2.982-8.396,4.819-12.643,7.145
	c-2.561,1.402-4.067,2.911-2.464,6.462c2.242,4.966,4.385,10,6.499,15.033c4.242,10.102,7.555,20.489,9.086,31.402
	c0.849,6.053,2.069,6.881,7.786,6.274c5.788-0.613,11.573-1.272,17.371-1.776c14.537-1.266,29.076-1.463,43.615,0.063
	C378.396,354.859,388.899,355.881,399.787,356.979z M305.802,244.388c1.327-3.074,0.883-5.236,0.988-7.302
	c0.135-2.665,1.164-4.754,3.714-5.742c2.873-1.113,5.862-1.117,8.294,0.889c2.423,1.999,2.505,5.072,1.765,7.765
	c-0.659,2.4-3.133,0.909-4.778,1.194c-1.182,0.205-2.432-0.001-3.63,0.146c-1.301,0.16-2.352,0.689-1.784,2.624
	c2.942-2.155,6.29-1.019,9.435-1.479c2.133-0.313,4.645-0.378,4.457-3.57c-0.183-3.087,0.675-5.744,3.16-7.84
	c-1.2-0.837-2.364-1.169-3.15-2.167c-5.743-7.296-13.685-6.467-21.556-5.658c-1.849,0.189-3.065,1.338-3.074,3.435
	c-0.009,2.001-0.189,4.016,2.63,4.292c0.749,0.073,1.462,0.494,1.391,1.376c-0.03,0.371-0.498,0.98-0.814,1.012
	c-5.083,0.517-2.593,3.915-2.923,6.61c1.535-0.245,1.05-2.375,2.701-1.802C305.088,239.026,305.291,241.229,305.802,244.388z
	 M308.865,217.379c2.519,0.37,4.5,0.812,6.5,0.919c3.061,0.163,3.943-1.197,2.721-4.032c-2.1-4.875-5.263-8.993-9.396-12.282
	c-1.831-1.457-4.271-2.128-6.508-1.711c-1.874,0.35-0.922,2.75-1.667,4.072c-0.473,0.839-0.846,1.739-1.36,2.549
	c-2.034,3.202-1.769,3.61,1.794,4.471c3.703,0.895,7.526,0.102,11.184,1.093c1.205,0.326,2.527,0.955,2.522,2.287
	c-0.006,1.695-1.657,1.375-2.786,1.57C311.056,216.454,310.153,216.171,308.865,217.379z M203.82,190.756
	c-0.688-4.15-2.132-8.357-4.262-12.332c-0.32-0.598-4.806-8.502-6.335-8.734c-2.393-0.363-3.419,2.389-2.689,5.146
	c0.957,3.614,6.373,15.6,9.573,17.966c0.847,0.626,1.699,1.578,2.892,0.902C204.008,193.133,203.726,192.017,203.82,190.756z"/>
<path fill-rule="evenodd" clip-rule="evenodd" fill="none" d="M399.787,356.979c-10.888-1.098-21.391-2.119-31.885-3.221
	c-14.539-1.526-29.078-1.329-43.615-0.063c-5.798,0.504-11.583,1.163-17.371,1.776c-5.717,0.606-6.937-0.222-7.786-6.274
	c-1.531-10.913-4.844-21.301-9.086-31.402c-2.114-5.033-4.257-10.067-6.499-15.033c-1.603-3.551-0.096-5.06,2.464-6.462
	c4.247-2.325,8.767-4.162,12.643-7.145c0.191-0.146,0.447-0.219,0.618-0.383c7.29-6.983,15.756-8.847,25.586-6.684
	c6.406,1.411,13.074,0.81,19.626,0.787c2.758-0.01,4.133,0.967,5.058,3.526c3.784,10.465,8.399,20.521,16.706,28.281
	c7.452,6.963,15.014,13.818,22.753,20.457c3.836,3.29,6.028,7.209,6.636,12.097c0.464,3.729,1.543,6.918,5.744,7.887
	c0.606,0.14,1.364,0.418,0.99,1.142C401.724,357.513,400.399,356.76,399.787,356.979z"/>
<path fill-rule="evenodd" clip-rule="evenodd" fill="none" d="M203.82,190.756c-0.094,1.261,0.188,2.377-0.822,2.949
	c-1.193,0.676-2.045-0.276-2.892-0.902c-3.2-2.366-4.696-5.873-5.653-9.487c-0.73-2.757,1.613-4.315,3.56-5.752
	c0.934-0.69,1.225,0.263,1.545,0.86C201.688,182.398,203.132,186.605,203.82,190.756z"/>
<rect x="291.812" y="193.268" fill-rule="evenodd" clip-rule="evenodd" width="49.889" height="56.616"/>
<rect id="_x3C_Slice_x3E_" x="173" y="79" fill-rule="evenodd" clip-rule="evenodd" fill="none" width="288" height="295"/>
<rect id="_x3C_Slice_x3E__1_" x="173" y="72" fill-rule="evenodd" clip-rule="evenodd" fill="none" width="288" height="311"/>
</svg>
